<svg xmlns="http://www.w3.org/2000/svg" width="800" height="450" viewBox="0 0 800 450">
  <rect width="800" height="450" fill="#1e293b"/>
  <rect x="20" y="20" width="220" height="130" rx="8" fill="#334155"/>
  <rect x="260" y="20" width="220" height="130" rx="8" fill="#334155"/>
  <rect x="500" y="20" width="280" height="130" rx="8" fill="#334155"/>
  <rect x="30" y="35" width="80" height="10" rx="4" fill="#94a3b8"/>
  <rect x="30" y="55" width="120" height="30" rx="4" fill="#3b82f6"/>
  <rect x="270" y="35" width="80" height="10" rx="4" fill="#94a3b8"/>
  <rect x="270" y="55" width="120" height="30" rx="4" fill="#10b981"/>
  <rect x="510" y="35" width="80" height="10" rx="4" fill="#94a3b8"/>
  <rect x="510" y="55" width="120" height="30" rx="4" fill="#f59e0b"/>
  <rect x="20" y="170" width="460" height="260" rx="8" fill="#334155"/>
  <rect x="500" y="170" width="280" height="260" rx="8" fill="#334155"/>
  <rect x="30" y="185" width="100" height="10" rx="4" fill="#94a3b8"/>
  <rect x="30" y="210" width="440" height="4" rx="2" fill="#3b82f6" opacity="0.3"/>
  <rect x="30" y="210" width="280" height="4" rx="2" fill="#3b82f6"/>
  <rect x="30" y="225" width="440" height="4" rx="2" fill="#3b82f6" opacity="0.3"/>
  <rect x="30" y="225" width="180" height="4" rx="2" fill="#10b981"/>
  <rect x="30" y="240" width="440" height="4" rx="2" fill="#3b82f6" opacity="0.3"/>
  <rect x="30" y="240" width="320" height="4" rx="2" fill="#f59e0b"/>
  <rect x="30" y="255" width="440" height="4" rx="2" fill="#3b82f6" opacity="0.3"/>
  <rect x="30" y="255" width="200" height="4" rx="2" fill="#8b5cf6"/>
  <rect x="30" y="270" width="440" height="4" rx="2" fill="#3b82f6" opacity="0.3"/>
  <rect x="30" y="270" width="350" height="4" rx="2" fill="#3b82f6"/>
  <rect x="510" y="185" width="100" height="10" rx="4" fill="#94a3b8"/>
  <circle cx="620" cy="310" r="80" fill="none" stroke="#1e293b" stroke-width="20"/>
  <path d="M620 230 A80 80 0 0 1 700 310" fill="none" stroke="#3b82f6" stroke-width="20"/>
  <path d="M700 310 A80 80 0 0 1 558 374" fill="none" stroke="#10b981" stroke-width="20"/>
  <path d="M558 374 A80 80 0 0 1 620 230" fill="none" stroke="#f59e0b" stroke-width="20"/>
</svg>
