<svg xmlns="http://www.w3.org/2000/svg" width="800" height="450" viewBox="0 0 800 450">
  <rect width="800" height="450" fill="#0d1117"/>
  <rect x="0" y="0" width="800" height="36" fill="#161b22"/>
  <circle cx="20" cy="18" r="6" fill="#ff5f57"/>
  <circle cx="40" cy="18" r="6" fill="#febc2e"/>
  <circle cx="60" cy="18" r="6" fill="#28c840"/>
  <rect x="150" y="8" width="200" height="20" rx="4" fill="#21262d"/>
  <rect x="0" y="36" width="180" height="414" fill="#161b22"/>
  <rect x="15" y="60" width="100" height="10" rx="3" fill="#6e7681"/>
  <rect x="15" y="85" width="14" height="14" rx="2" fill="#f0883e"/>
  <rect x="35" y="88" width="80" height="8" rx="2" fill="#c9d1d9"/>
  <rect x="15" y="108" width="14" height="14" rx="2" fill="#79c0ff"/>
  <rect x="35" y="111" width="70" height="8" rx="2" fill="#c9d1d9"/>
  <rect x="15" y="131" width="14" height="14" rx="2" fill="#7ee787"/>
  <rect x="35" y="134" width="90" height="8" rx="2" fill="#c9d1d9"/>
  <rect x="15" y="154" width="14" height="14" rx="2" fill="#f0883e"/>
  <rect x="35" y="157" width="65" height="8" rx="2" fill="#c9d1d9"/>
  <rect x="180" y="36" width="620" height="414" fill="#0d1117"/>
  <rect x="200" y="70" width="60" height="12" rx="2" fill="#ff7b72"/>
  <rect x="268" y="70" width="40" height="12" rx="2" fill="#c9d1d9"/>
  <rect x="316" y="70" width="80" height="12" rx="2" fill="#ffa657"/>
  <rect x="200" y="95" width="30" height="12" rx="2" fill="#ff7b72"/>
  <rect x="238" y="95" width="50" height="12" rx="2" fill="#79c0ff"/>
  <rect x="296" y="95" width="30" height="12" rx="2" fill="#c9d1d9"/>
  <rect x="220" y="120" width="40" height="12" rx="2" fill="#7ee787"/>
  <rect x="268" y="120" width="60" height="12" rx="2" fill="#c9d1d9"/>
  <rect x="336" y="120" width="20" height="12" rx="2" fill="#ff7b72"/>
  <rect x="200" y="145" width="50" height="12" rx="2" fill="#79c0ff"/>
  <rect x="258" y="145" width="30" height="12" rx="2" fill="#c9d1d9"/>
  <rect x="296" y="145" width="80" height="12" rx="2" fill="#ffa657"/>
  <rect x="220" y="170" width="60" height="12" rx="2" fill="#7ee787"/>
  <rect x="288" y="170" width="40" height="12" rx="2" fill="#c9d1d9"/>
  <rect x="200" y="195" width="30" height="12" rx="2" fill="#ff7b72"/>
  <rect x="238" y="195" width="100" height="12" rx="2" fill="#c9d1d9"/>
  <rect x="200" y="220" width="70" height="12" rx="2" fill="#79c0ff"/>
  <rect x="278" y="220" width="50" height="12" rx="2" fill="#ffa657"/>
  <rect x="336" y="220" width="30" height="12" rx="2" fill="#c9d1d9"/>
  <rect x="220" y="245" width="80" height="12" rx="2" fill="#7ee787"/>
  <rect x="308" y="245" width="20" height="12" rx="2" fill="#c9d1d9"/>
  <rect x="180" y="60" width="2" height="390" fill="#3d444d"/>
  <rect x="194" y="70" width="2" height="12" rx="1" fill="#3b82f6"/>
</svg>
